<?xml version="1.0" encoding="utf-8"?>
<!-- Generator: Adobe Illustrator 20.0.0, SVG Export Plug-In . SVG Version: 6.00 Build 0)  -->
<svg version="1.1" id="Layer_1" xmlns="http://www.w3.org/2000/svg" xmlns:xlink="http://www.w3.org/1999/xlink" x="0px" y="0px"
	 viewBox="0 0 1173 1324.9" style="enable-background:new 0 0 1173 1324.9;" xml:space="preserve">
<title>Asset 1</title>
<g id="Layer_2">
	<g id="Layer_1-2">
		<path d="M1173,545v5c-4.3-1.2-8.6-2.7-13-3.5c-17.1-2.8-34.8-1.5-42.4,23.5c-4.3,14.2-9.1,28.2-13.6,42.3
			c-24.1,75.9-58.6,146.6-108.5,208.8c-32.9,41-68.4,80-102.7,119.9c-13.9,16.1-31.1,30-35.9,52.6v-47.4c-1.9,1.8-3.1,2.8-4.2,4
			c-13.3,13.8-26.8,27.4-40,41.3c-44.6,47.2-87.9,95.7-127.1,147.6c-20.3,26.9-39.8,54.3-53.8,85.1c-4.1,9-7.1,18.5-11.3,29.7
			l-13.2-16.3c-10.5,28.9-14.9,57.4-21.5,86.1c-3.3-14.9-6.1-28.9-9.6-42.8s-7.7-27.7-11.6-41.5l-2.5-1l-12,14.6
			c-2.5-7.5-4.2-13.9-6.7-20.1c-10.7-26.8-26.3-50.8-43-74.1c-54.1-75.8-117-143.9-181.7-210.5c-0.8-0.6-1.6-1.2-2.5-1.8v46.9
			c-3.5-14.5-11.9-25.8-21.5-36.6c-30.7-34.7-61.3-69.4-91.8-104.3C142.3,783.1,98.5,704.2,70.5,616.4
			c-5.6-17.6-11.3-35.1-17.5-52.5c-4-11.3-12.8-17-24.6-18.2c-9.9-1-19.2,1.4-28.4,4.3v-4c0.4-1.1,0.8-2.1,1.1-3.2
			c3.5-14.9,6.4-30,10.6-44.6c24-83.4,69.9-153.7,129.8-215.5c42.1-43.4,89.2-80.6,139.9-113.2c64.8-41.6,133.2-75.9,205.8-101.9
			c28.3-10.1,55.2-23.3,78.7-42.5c8.4-6.9,16.1-14.4,20.1-25h1c3.9,10,11.1,17.4,19,24c23.4,19.6,50.5,32.8,78.9,43.1
			c80.9,29.1,157.7,68.3,228.6,116.9c64.3,44,121.9,95.3,168.9,157.9c38.8,51.7,67.4,108.4,83.2,171.2
			C1168.2,523.7,1170.5,534.4,1173,545z M586,516.5c-1-1.2-1.7-2.4-2.6-3.3c-26.4-28-55.1-53.7-85.8-77
			c-22.6-17.3-46-33.4-72.4-44.6c-4.5-1.9-9.1-3.5-14.7-5.5c1.4,7.8,2.3,14.5,3.9,21.1c1.2,4.8,0.1,7.4-4,10.2
			c-29.5,20.2-56.9,42.8-80.2,70.2c-13.6,16-25.3,33.1-30.7,53.6c-1.3,4.8-2.5,10.6-0.9,15c21.4,61.1,54.4,115.1,100.2,161.2
			c11.7,11.8,23.1,24,34.1,36.4c4.6,5.2,7.7,11.6,11.5,17.4l-1.1,0.7l-20.6-15.9c-0.3,0.8-0.5,1.1-0.5,1.4
			c3.5,22.2,1.6,43.4-9.4,63.8c-10.5,19.6-12.1,40.6-3.9,61.7c1,2.6,2.7,4.7,5,6.2c30.6,18,61.5,35.7,92.1,53.7
			c2.6,1.5,4.5,1,6.8-0.4c15.6-9.6,31.2-19,46.8-28.6c1.4-0.9,2.8-2,4.5-3.2c-25.8-12.6-49-30.1-68.4-51.4c-1.8-2-2.8-4.7-2.8-7.4
			c1.2-18.6,8.5-35.3,17-51.6c0-0.1,0.5,0,0.8,0c0.1,0.7,0.1,1.3,0,2c-2.2,10.7-4.3,21.5-6.6,32.2c-0.8,3.8-0.5,7,2.9,9.2
			c6.1,3.9,12,8.6,18.6,11.3c36.8,14.7,74.4,15.7,112.3,4.4c10.6-3.2,20.5-7.8,28.6-15.6c2.5-2.5,3.6-4.9,2.7-8.8
			c-2.8-11.9-4.8-24-7.2-36c8.5,15.1,15.3,30.8,18,48c0.8,5.4,0.7,9.7-3.5,14c-18.7,19-39.2,35.6-63.1,47.6
			c-1.2,0.6-2.4,1.4-4.1,2.4c1.9,1.2,3.2,2.2,4.6,3c15.5,9.4,31,18.7,46.4,28.3c2.8,1.8,4.8,1.8,7.6,0.2
			c29.7-17.3,59.5-34.6,89.3-51.7c4.6-2.6,7.5-6.1,8.4-11c1.5-7.5,3.2-15,3.6-22.5c0.8-14.5-4.6-27.6-10.4-40.6
			c-3.2-7.1-6.8-14.3-7.8-21.8c-1.4-10.6-0.4-21.5-0.5-32.3c0-1.8,0-3.7,0-6.4L730,771.8c2.4-6,5.2-11.8,9.2-16.5
			c12.1-13.7,24.5-27.2,37.3-40.2c44.8-45.4,76.9-98.6,98.3-158.5c1-3,1.3-6.1,0.7-9.2c-1.2-6-3-11.9-5.2-17.6
			c-8.1-20.5-21.6-37.4-36.4-53.2c-21.6-23.1-46-42.9-72.2-60.6c-2.5-1.7-3.9-3.1-3-6.7c1.9-7.3,2.9-14.9,4.4-23.2
			c-3.8,1.3-6.9,2.2-9.9,3.4c-23.1,9-43.8,22.2-63.8,36.6C652.4,452.8,618.6,483.1,586,516.5z M666.2,974.7c-2.2-5.1-4.5-9.6-6-14.3
			c-1.6-5.1-5-7.3-9.7-9.5c-19.7-8.9-39.1-18.3-58.5-27.7c-3.8-1.8-6.8-1.9-10.6,0c-17,8.4-33.6,17.6-51.2,24.3
			c-11.7,4.5-17.6,12-21.3,22.9c-1.2,3.7-0.7,5.5,2.6,7c12.5,5.7,24.7,12.3,37.6,17s26.3,8.2,35.4,18.3c5.6-3.8,10.3-7.9,15.8-10.5
			c6.4-3.1,13.3-5,20.1-7.2C636.3,990,651.6,983.7,666.2,974.7L666.2,974.7z M382.4,324.4c0.3-1,0.6-1.5,0.5-1.9
			c-3.4-12.9-7.6-25.5-15.5-36.4c-4-5.5-9.2-8.3-16.4-7c-17.5,3-34.5,8.8-50.2,17.1c-22.6,12.3-43,27.7-62.7,44.2
			c-19.8,16.7-36.2,36.2-47,60c-2.1,4.7-2.5,9.2-0.2,13.9c5.2,10.4,14,16.8,23.6,23.1c0.8-1.6,1.3-2.7,1.7-3.7
			c12.6-34.2,34.7-60.9,63.9-82.3c22.7-16.7,46.4-30.8,74.7-36.1c9-1.7,16.7-1.6,23.1,5.8C379,322.5,380.8,323.2,382.4,324.4z
			 M966.8,437.4c8.6-5.7,16.5-11.5,21.9-20c3.7-5.7,4.6-11.8,1-17.9c-5.9-9.8-11.2-20-17.9-29.3c-14.6-20-34-35-53.6-49.7
			c-26.2-19.6-53.8-36-86.8-41.4c-7.2-1.2-12.8,0.5-17.1,6.3c-8.5,11.4-12.6,24.6-15.8,38.5c3.5-2,6.3-4.9,9.6-6.6
			c3.2-1.7,7.1-3.4,10.5-3.1c7.2,0.9,14.4,2.4,21.4,4.4c23.8,6.3,43.8,19.7,63.1,34.3c22.3,16.9,41.5,36.4,53.6,62.1
			C960,422.2,963.2,429.5,966.8,437.4L966.8,437.4z M707.8,939l-1.4-0.9c-10.3,6.7-20.6,13.3-30.8,20.1c-0.9,0.6-1.8,2.4-1.5,3.1
			c2.9,7.3,6,14.5,9.1,21.7l1.6,0.2L707.8,939z M490.4,983.3l10-23.6l-33-21.5C468.2,945.8,483,974.5,490.4,983.3z"/>
		<path d="M521,704.9c-12.8-8.7-26.9-11.4-40.7-14.8c-2.5-0.6-3.4-1.4-4.5-4c-1.8-3.6-4.7-6.6-8.2-8.7
			c-15.1-8.9-28.7-19.4-38.6-34.1c-3.9-5.8-7.2-12-10.6-18c-0.8-1.3-1-3-1.9-6.1c4.3,1.5,7.5,2.1,10.2,3.6
			c14.6,7.9,29.1,15.9,43.7,24c4.8,2.7,9.4,5.7,14.3,8.1c10.1,5,17.2,1.9,20.4-8.8c1.3-5,2.3-10,2.9-15.1c0.7-4.9,0.9-9.9,1.4-14.9
			c6.2,1.3,11.6,7.2,11.6,13.7C521.1,654.6,521,679.4,521,704.9z"/>
		<path d="M756.6,620.8c-0.6,2.1-1.3,4.1-2.2,6.1c-10.2,21.2-26.7,38.6-47.3,49.8c-4.9,2.7-10.1,5.4-10,12.4
			c-14.8,3.9-30.2,6.4-43.8,15.3c-0.2-1.2-0.3-2.5-0.4-3.8c0-23.1,0-46.3,0-69.4c0-7.4,3.5-12.3,11.2-15.4
			c0.6,5.9,0.9,11.6,1.9,17.2s2,11.5,4.1,16.8c2.7,6.8,8.1,8.8,15.1,6.4c3.3-1.2,6.4-2.7,9.4-4.4c16.2-9.1,32.3-18.3,48.6-27.3
			c3.8-2.1,8-3.3,12-5L756.6,620.8z"/>
	</g>
</g>
</svg>
