<svg id="Layer_1" data-name="Layer 1" xmlns="http://www.w3.org/2000/svg" viewBox="0 0 1173.01 1323.76"><defs><style>.cls-1{fill:#f9f7f7;}</style></defs><title>lion-white</title><g id="Layer_2" data-name="Layer 2"><g id="Layer_1-2" data-name="Layer 1-2"><path class="cls-1" d="M1173,545v5c-4.33-1.18-8.6-2.74-13-3.47-17.06-2.82-34.78-1.55-42.43,23.47-4.33,14.15-9.08,28.17-13.56,42.28-24.07,75.9-58.57,146.61-108.51,208.83-32.93,41-68.39,80-102.71,119.9-13.87,16.13-31.12,30-35.91,52.57V946.23c-1.87,1.75-3.1,2.8-4.22,4-13.34,13.75-26.8,27.38-40,41.3-44.64,47.24-87.89,95.7-127.08,147.63-20.28,26.87-39.76,54.31-53.84,85.08-4.11,9-7.1,18.48-11.35,29.71l-13.18-16.32c-10.47,28.91-14.9,57.42-21.55,86.13-3.3-14.88-6.09-28.92-9.57-42.79s-7.7-27.7-11.6-41.54l-2.47-1L550,1253c-2.49-7.51-4.25-13.94-6.71-20.1-10.71-26.78-26.27-50.83-43-74.14-54.14-75.76-117-143.88-181.7-210.51a20.35,20.35,0,0,0-2.49-1.75v46.92c-3.49-14.49-11.9-25.81-21.47-36.63q-46-52-91.76-104.29C142.27,783.08,98.53,704.15,70.48,616.4,64.87,598.83,59.15,581.28,53,563.88c-4-11.33-12.78-17-24.61-18.17-9.85-1-19.16,1.37-28.4,4.29v-4c.36-1.07.81-2.12,1.06-3.21,3.52-14.88,6.39-30,10.62-44.63,24-83.38,69.94-153.69,129.83-215.5,42.05-43.4,89.17-80.62,139.93-113.24,64.79-41.63,133.2-75.9,205.77-101.9C515.49,57.39,542.44,44.21,565.92,25c8.39-6.87,16.14-14.44,20.08-25h1c3.88,10,11.09,17.35,19,24,23.42,19.56,50.45,32.85,78.88,43.1A1007.19,1007.19,0,0,1,913.49,184c64.29,44,121.93,95.29,168.87,157.92,38.76,51.7,67.39,108.35,83.23,171.19C1168.25,523.68,1170.54,534.36,1173,545ZM586,516.46c-1-1.24-1.67-2.38-2.58-3.35a700,700,0,0,0-85.76-77c-22.61-17.31-46-33.37-72.4-44.6-4.49-1.91-9.15-3.45-14.74-5.54,1.41,7.8,2.26,14.54,3.94,21.06,1.22,4.75.07,7.36-4,10.16-29.54,20.16-56.94,42.83-80.19,70.18-13.56,16-25.29,33.08-30.7,53.65-1.26,4.78-2.47,10.58-.94,15C320,617.08,353.07,671.08,398.81,717.2q17.57,17.72,34.13,36.43c4.56,5.17,7.7,11.59,11.48,17.44l-1.06.73-20.59-15.86c-.28.84-.49,1.14-.45,1.4,3.45,22.24,1.57,43.39-9.42,63.79-10.55,19.59-12.07,40.56-3.93,61.67a13.1,13.1,0,0,0,5,6.25c30.65,18,61.45,35.74,92.14,53.68,2.64,1.55,4.47,1,6.78-.4,15.58-9.57,31.23-19,46.83-28.57,1.44-.88,2.76-2,4.47-3.19a226.28,226.28,0,0,1-68.35-51.41,11.15,11.15,0,0,1-2.76-7.39c1.18-18.61,8.5-35.3,17-51.56,0-.1.47,0,.78,0a10.85,10.85,0,0,1,0,2c-2.17,10.74-4.29,21.49-6.62,32.19-.82,3.76-.55,7,2.89,9.17,6.14,3.9,12,8.63,18.64,11.3,36.82,14.73,74.36,15.74,112.26,4.39,10.6-3.18,20.48-7.82,28.6-15.63,2.55-2.46,3.63-4.87,2.72-8.8-2.75-11.93-4.85-24-7.2-36,8.52,15.1,15.32,30.77,18,48,.84,5.38.72,9.67-3.55,14-18.71,19-39.15,35.56-63.08,47.58-1.25.63-2.41,1.43-4.08,2.43,1.87,1.24,3.19,2.19,4.57,3,15.48,9.42,31,18.74,46.4,28.32,2.83,1.76,4.83,1.79,7.64.16q44.56-26,89.3-51.68c4.59-2.62,7.47-6.06,8.44-11,1.47-7.46,3.18-15,3.59-22.53.79-14.5-4.61-27.6-10.39-40.58-3.15-7.07-6.82-14.35-7.78-21.85-1.36-10.62-.43-21.53-.48-32.31v-6.43L730,771.81c2.44-6,5.15-11.85,9.23-16.46,12.13-13.69,24.49-27.23,37.33-40.25,44.79-45.41,76.9-98.62,98.26-158.5a17.8,17.8,0,0,0,.66-9.23,109.75,109.75,0,0,0-5.23-17.6c-8.12-20.45-21.58-37.37-36.43-53.22-21.61-23.07-46-42.85-72.17-60.56-2.55-1.73-3.93-3.06-3-6.7,1.88-7.33,2.87-14.88,4.38-23.2-3.77,1.27-6.89,2.19-9.91,3.36-23.12,9-43.85,22.18-63.83,36.6C652.4,452.82,618.61,483.15,586,516.46Zm80.22,458.25c-2.18-5.11-4.49-9.57-6-14.29-1.6-5.08-5-7.35-9.66-9.48-19.65-8.89-39.08-18.26-58.48-27.68-3.77-1.83-6.81-1.93-10.6,0-17,8.4-33.63,17.6-51.24,24.32-11.73,4.47-17.59,12-21.27,22.93-1.23,3.66-.73,5.46,2.61,7,12.52,5.71,24.71,12.29,37.57,17s26.33,8.23,35.44,18.27c5.58-3.8,10.32-7.88,15.77-10.5,6.37-3.07,13.31-5,20.09-7.17,15.83-5.11,31.12-11.39,45.74-20.4ZM382.44,324.44c.26-1,.57-1.51.47-1.9-3.4-12.89-7.58-25.48-15.51-36.42-4-5.54-9.23-8.26-16.39-7a165.75,165.75,0,0,0-50.18,17.12c-22.64,12.26-43,27.73-62.67,44.24-19.84,16.68-36.18,36.16-47,60-2.13,4.68-2.54,9.25-.23,13.89,5.16,10.35,14,16.84,23.61,23.11.75-1.64,1.31-2.66,1.7-3.74,12.62-34.16,34.67-60.88,63.87-82.29,22.73-16.67,46.4-30.84,74.67-36.06,9-1.66,16.73-1.65,23.13,5.78C379,322.45,380.75,323.24,382.44,324.44Zm584.39,113c8.63-5.71,16.48-11.51,21.88-20,3.65-5.71,4.6-11.76,1-17.88-5.87-9.82-11.21-20-17.92-29.26-14.58-20-34-35-53.63-49.69-26.15-19.6-53.82-36-86.79-41.35-7.24-1.19-12.79.55-17.09,6.33-8.47,11.4-12.59,24.63-15.79,38.46,3.46-2,6.26-4.87,9.63-6.65,3.21-1.69,7.13-3.41,10.53-3.07a137.33,137.33,0,0,1,21.4,4.4C863.8,325,883.79,338.4,903.09,353c22.31,16.85,41.48,36.41,53.56,62.07,3.35,7.18,6.59,14.46,10.18,22.4ZM707.83,939l-1.44-.9c-10.3,6.67-20.62,13.31-30.85,20.08-.86.57-1.81,2.36-1.51,3.11,2.89,7.28,6,14.45,9.1,21.66l1.58.19ZM490.37,983.27l10-23.59-33-21.49C468.24,945.76,483,974.5,490.37,983.27Z" transform="translate(0.01)"/><path class="cls-1" d="M521,704.88c-12.8-8.7-26.88-11.4-40.7-14.76-2.46-.6-3.38-1.41-4.53-4a20.88,20.88,0,0,0-8.22-8.66c-15.07-8.93-28.7-19.41-38.6-34.06-3.9-5.77-7.19-12-10.63-18-.76-1.35-1-3-1.89-6.09,4.28,1.46,7.49,2.08,10.24,3.56,14.62,7.87,29.14,15.93,43.68,24,4.8,2.65,9.4,5.69,14.3,8.11,10.07,5,17.17,1.92,20.36-8.84a103.77,103.77,0,0,0,2.91-15.1c.69-4.93.93-9.92,1.37-14.9,6.2,1.31,11.6,7.18,11.65,13.7C521.08,654.58,521,679.38,521,704.88Z" transform="translate(0.01)"/><path class="cls-1" d="M756.64,620.79a55,55,0,0,1-2.16,6.11,111.81,111.81,0,0,1-47.32,49.79c-4.9,2.72-10.11,5.36-10,12.39-14.84,3.93-30.2,6.38-43.82,15.28a35.93,35.93,0,0,1-.4-3.75V631.19c0-7.37,3.49-12.3,11.25-15.42.61,5.87.91,11.6,1.88,17.22s2,11.48,4.14,16.78c2.73,6.8,8.11,8.8,15.11,6.43a57.23,57.23,0,0,0,9.42-4.42c16.22-9.08,32.34-18.35,48.61-27.34,3.78-2.09,8-3.35,12-5Z" transform="translate(0.01)"/></g></g></svg>